ply
format ascii 1.0
comment Created by Open3D
element vertex 371
property double x
property double y
property double z
end_header
0.0262443 0.0535083 0.088174
0.0467675 0.0541293 0.0871464
0.0031 0.125384 0.0370472
0.0352857 0.0380505 0.0822673
0.0370286 0.127766 0.0663285
-0.010875 0.0371859 0.0709503
-0.00348496 0.0366719 0.072819
0.0113437 0.0738156 0.0900068
-0.0154619 0.0369644 0.0677342
0.0366639 0.0935929 0.0913375
0.0169498 0.0841687 0.0907693
0.0139551 0.0375684 0.0786699
-0.016 0.046962 0.0534381
-0.0129104 0.0543591 0.051596
-0.0321671 0.0752838 0.0431399
0.00643142 0.0373637 0.0759435
0.0509187 0.0851763 0.0895379
0.0100109 0.0478364 0.082013
0.018994 0.0378613 0.0810912
0.0262941 0.0379573 0.0838913
-0.0216048 0.0533907 0.0461179
0.00874671 0.121035 0.0631674
0.03964 0.0372745 0.0784703
0.0121111 0.0757216 0.0896035
0.016625 0.0543234 0.0874858
-0.0486833 0.0936276 0.0218562
0.0463014 0.0374468 0.076765
0.0562407 0.0377626 0.076234
0.0587421 0.116214 0.0664202
-0.013777 0.114598 0.0458569
-0.0331578 0.0369656 0.0471786
-0.0273676 0.0366974 0.0494631
-0.0231968 0.0372954 0.0508853
0.0708426 0.0965187 0.068051
0.0729493 0.093735 0.0647301
0.0579631 0.0540108 0.0913088
0.0149687 0.127508 0.0574401
-0.0187812 0.037777 0.0625547
0.00620344 0.0436988 0.0757979
-0.013125 0.0874853 0.0692192
-0.038 0.0694069 0.0289864
0.0267021 0.0441842 0.0844558
0.0270078 0.103927 0.0853184
0.0765231 0.0543442 0.0856163
-0.00126433 0.0747905 0.0832142
0.0365669 0.0443261 0.0844911
0.06255 0.0388158 0.0756469
0.0138716 0.0417766 0.0785535
0.0750833 0.0709084 0.0844535
0.0176415 0.0449567 0.0828209
0.0460865 0.039599 0.079336
0.00269444 0.0505838 0.0780427
0.0655731 0.0729368 0.0837263
0.0466621 0.0446687 0.0831192
0.076425 0.084461 0.0562986
-0.0393438 0.03769 0.0390218
0.056438 0.0441765 0.0858104
0.05975 0.0395435 0.0789112
-0.00214853 0.0544293 0.0747308
0.0530964 0.0547708 0.0884069
-0.0433914 0.152696 0.0265108
-0.010561 0.0423252 0.0708656
-0.05825 0.138722 0.0283765
-0.00315673 0.0434937 0.0723849
0.0364932 0.117975 0.0790676
-0.018875 0.0405779 0.0618112
0.0673264 0.0413611 0.0774456
-0.0385833 0.0374237 0.0423375
0.02307 0.107952 0.0787902
0.0805345 0.0517603 0.0771659
-0.0175776 0.0523261 0.0494978
-0.0138468 0.0443969 0.0660134
-0.0258333 0.0816673 0.0491382
0.0661596 0.0455424 0.0854001
0.0260169 0.127399 0.0662462
-0.0327893 0.0433391 0.044992
-0.0245178 0.0454559 0.0472267
0.036625 0.0741796 0.0917454
-0.0213925 0.0420931 0.0506324
0.0757791 0.0457927 0.0760719
0.013125 0.152593 0.0191832
0.0455221 0.121604 0.0731815
-0.039375 0.0396169 0.0396042
-0.034058 0.155255 0.0265443
-0.0387143 0.0405331 0.0401186
0.0376926 0.167871 0.0192286
0.0182234 0.06669 0.0905344
0.073733 0.0474599 0.0828
-0.00577128 0.0512472 0.0656878
-0.0246478 0.15188 0.0321866
-0.0338 0.0469805 0.0391183
0.0828278 0.0638521 0.0770415
0.0575 0.0487119 0.0900592
-0.00547778 0.0481642 0.0682884
-0.01361 0.06397 0.0529794
0.066245 0.055104 0.0916755
0.0683265 0.0502604 0.0890938
-0.0240011 0.104896 0.0470608
0.0069 0.0544699 0.0836818
-0.0333578 0.114278 0.037398
0.03667 0.0538197 0.0880085
-0.0179 0.0482092 0.0496309
-0.00991667 0.0498145 0.0621742
0.025 0.0891722 0.0897763
0.0825 0.0561016 0.0763774
-0.00750581 0.0545187 0.0537422
0.0726429 0.0572414 0.0904107
0.0625395 0.0921128 0.0809491
0.0669532 0.0636872 0.0917036
0.0279637 0.0576058 0.0902222
0.0158174 0.105225 0.0768165
0.000616667 0.0579854 0.0804387
0.0362879 0.0586056 0.0900429
0.00225 0.171924 -0.0295351
0.0428333 0.0587284 0.0900519
0.081875 0.058443 0.0807307
0.044761 0.0648112 0.0905362
-0.023375 0.0559034 0.0395155
0.00671233 0.0641738 0.0864729
0.0155435 0.0626692 0.0891635
0.0724524 0.102097 0.0555605
-0.00902083 0.100881 0.0607276
0.0235806 0.0608029 0.0895497
0.0269851 0.0647622 0.0905295
0.0366333 0.0643562 0.0904678
0.0269082 0.162763 0.0229314
0.0495212 0.0635614 0.0890293
0.0167193 0.114157 0.0745326
0.0560405 0.0646823 0.086921
0.0598542 0.0613792 0.0911264
0.0729524 0.0631378 0.0905798
0.0631149 0.0838461 0.0817145
0.0775502 0.0645195 0.0863818
0.0378306 0.130587 0.0572775
-0.00488676 0.0644739 0.0757472
-0.00558721 0.147612 0.0204204
0.0566012 0.0741583 0.0864085
-0.000142857 0.0642095 0.0815431
0.082 0.061508 0.0809097
-0.0185 0.0579235 0.0499976
-0.023044 0.0649536 0.0459716
-0.0195254 0.0650687 0.0508984
-0.00788889 0.0606577 0.0535829
0.0648365 0.0681577 0.0883453
-0.0261014 0.0645929 0.0369609
-0.00886111 0.0678437 0.0714688
0.0171659 0.174035 0.0184419
0.0680553 0.0843382 0.075374
0.0811875 0.0682663 0.0787776
0.00418519 0.123801 0.0431583
-0.0317167 0.0673001 0.0350967
-0.01725 0.118577 0.0388767
0.00648716 0.0742444 0.0874938
0.0166822 0.0743212 0.091185
-0.022524 0.0850295 0.0512935
0.026625 0.0742328 0.0925623
0.0455181 0.0746773 0.0909517
-0.023375 0.134298 0.0355324
0.0502397 0.0733348 0.0894256
-0.0349 0.0671608 0.02914
-0.00600775 0.0736021 0.0775201
0.075 0.0735038 0.074148
-0.0101824 0.0753787 0.0731114
-0.02885 0.0685461 0.0402877
-0.0206799 0.0744797 0.0513736
-0.0150681 0.0736842 0.0539419
-0.0256431 0.0741679 0.0472914
-0.0440779 0.116352 0.0422964
0.0684516 0.0757158 0.0757548
-0.0357791 0.0723339 0.0368352
-0.0434829 0.124243 0.0429593
0.0186971 0.101506 0.0829731
0.0736815 0.075663 0.0658792
0.0755909 0.0745937 0.0577237
-0.0101346 0.110959 0.0515743
0.046616 0.10423 0.0857712
-0.0423437 0.0745748 0.0285067
0.0015 0.178865 -0.0401653
-0.0406324 0.075901 0.033505
0.00940385 0.111679 0.0714447
0.0265852 0.0840344 0.0922151
0.0366167 0.0839593 0.0924383
0.0459536 0.0840693 0.0911579
-0.0016399 0.0837622 0.082366
0.00570229 0.164353 0.0207613
0.00649141 0.0843039 0.0873416
0.0125 0.0848798 0.089509
0.0566333 0.0842571 0.0865595
-0.0109706 0.0839836 0.0745376
-0.00650467 0.0850006 0.0784944
-0.0424623 0.111787 0.0360274
0.0718214 0.0827033 0.0701156
0.073669 0.0843106 0.0656272
-0.0333348 0.0842437 0.0454648
-0.0158489 0.0848156 0.0552557
-0.0433177 0.0840973 0.0354076
-0.00545703 0.097373 0.064115
-0.03825 0.0794517 0.0396621
-0.0138558 0.161663 -0.00735482
0.0112222 0.0847041 0.08997
-0.047516 0.0947869 0.026509
-0.047108 0.0839657 0.0269455
-0.039678 0.0855002 0.0410067
-0.04855 0.0867674 0.0250072
0.019117 0.0903251 0.0903906
0.0284253 0.0927397 0.0909377
0.0448448 0.0924024 0.0909227
-0.000582237 0.0916633 0.0816506
0.0069011 0.0938539 0.0843615
0.0162708 0.0949406 0.0866627
0.0249119 0.0953678 0.0887745
0.0482917 0.095782 0.0886499
0.0565847 0.0942664 0.0849454
0.0192174 0.180695 0.0191346
-0.00987162 0.0909283 0.0720867
-0.0515683 0.142778 0.0346805
-0.0224286 0.112022 0.0428629
-0.00374269 0.0942258 0.0763899
0.0668162 0.0942673 0.0749382
0.0750724 0.092939 0.0580935
0.0162719 0.166488 0.0182684
-0.0332896 0.094198 0.0450809
-0.0262869 0.0945644 0.0491458
-0.0322214 0.103268 0.0425607
-0.0214112 0.0938502 0.05123
-0.0148338 0.0945005 0.0572411
-0.0432953 0.094624 0.0354085
-0.0396827 0.0922337 0.0412671
0.00629314 0.155036 0.0221575
-0.0192063 0.145189 0.0291283
-0.0102461 0.0953649 0.0612329
0.00361667 0.0981684 0.0781299
-0.0198068 0.157942 -0.00175888
0.00684848 0.150331 0.019041
0.00313462 0.14822 0.0177462
0.0030463 0.104988 0.0685891
0.0362813 0.0984278 0.089611
0.061375 0.0984058 0.079519
0.0366346 0.17429 0.0166275
0.0266346 0.17429 0.0168822
-0.0130917 0.103969 0.0544125
0.0365456 0.104035 0.0868542
0.00788565 0.103662 0.0734022
0.0549524 0.103531 0.0825773
-0.0595662 0.11676 0.032066
0.0592996 0.105451 0.0774502
0.0641912 0.103086 0.0733956
-0.0489375 0.0979307 0.0174544
-0.03825 0.0978257 0.0398073
0.0350673 0.164792 0.0215291
-0.00287027 0.103756 0.0641471
0.0679593 0.104533 0.0664388
-0.00360625 0.128284 0.0278687
0.07205 0.0999916 0.0620706
0.0259863 0.167728 0.0186217
-0.020308 0.101191 0.0504284
-0.0359453 0.106275 0.0379597
-0.0416583 0.150757 0.0322447
0.0275588 0.130629 0.057202
-0.0456781 0.103902 0.0267969
0.0468962 0.124937 0.0654646
-0.0413491 0.103872 0.0337697
-0.0485 0.10058 0.0164753
0.07 0.106061 0.0566517
0.0025 0.118331 0.0588386
-0.0474737 0.104023 0.0173567
-0.00709559 0.107006 0.0582153
-0.0164113 0.158201 -0.00259559
-0.0167763 0.10744 0.0490901
-0.0218258 0.154249 0.0262573
0.0367576 0.112945 0.0820729
0.0364147 0.122742 0.0742759
0.0458191 0.112314 0.082079
0.00586044 0.114825 0.0660943
0.0259326 0.115135 0.0774807
0.029411 0.111456 0.0808832
0.0138902 0.181098 -0.043007
-0.0420237 0.135473 0.0386509
0.052525 0.110207 0.0805686
0.0556553 0.113228 0.0743497
0.0621875 0.10944 0.0704764
-0.00374737 0.114246 0.0546297
-0.0328214 0.114867 0.0402612
-0.00044697 0.111681 0.0619914
0.0636199 0.112294 0.0643302
0.0657143 0.113105 0.0568445
-0.0542315 0.113698 0.0347938
0.0474651 0.11698 0.07761
-0.0243904 0.116478 0.0385732
-0.056875 0.111781 0.0293374
-0.0513474 0.11641 0.0422907
0.0115 0.178865 -0.0403078
-0.0388333 0.128841 0.0396957
-0.0612976 0.116402 0.0280656
-0.019 0.159916 -0.00513062
-0.00654605 0.132197 0.0236793
-0.00610227 0.117612 0.0480899
0.0123214 0.11848 0.069296
0.0605937 0.11852 0.0572355
0.0166548 0.124152 0.0654981
-0.051921 0.132574 0.0408722
0.0189096 0.120609 0.0710384
0.027033 0.122558 0.0731798
0.052 0.119606 0.0704757
0.0543235 0.121081 0.0643615
0.0557292 0.12272 0.0556102
-0.0523824 0.124561 0.0427466
-0.011594 0.135576 0.0268584
-0.0106394 0.120737 0.0424359
-0.00354196 0.121775 0.0434201
0.00055 0.120063 0.0519373
0.00631338 0.122618 0.0563837
-0.0624417 0.12332 0.0278486
-0.0600816 0.123971 0.0339851
-0.0572731 0.123378 0.0375793
-0.0334283 0.123634 0.040477
-0.0331667 0.127681 0.03953
-0.0229606 0.124511 0.0385237
0.0428875 0.168184 0.016993
-0.0138945 0.124819 0.0349905
-0.0274231 0.123154 0.0401251
-0.00439957 0.144503 0.0178922
-0.00354206 0.125907 0.0357884
0.0475 0.127411 0.0564066
0.04125 0.129034 0.0596373
0.0170958 0.161495 0.0229136
-0.00875 0.128665 0.0296622
0.01975 0.129668 0.0570114
0.0281905 0.129955 0.061446
0.0347283 0.130046 0.0619599
0.0425 0.12967 0.0570926
-0.0596698 0.132504 0.034209
-0.0547238 0.136177 0.0377849
-0.0457698 0.132605 0.0406635
-0.033375 0.134341 0.0367093
-0.0151339 0.132605 0.0322568
-0.00487658 0.13497 0.016601
-0.0585 0.138043 0.0296474
-0.0534231 0.145228 0.0266207
-0.043375 0.144382 0.0365487
-0.033375 0.14435 0.035585
-0.0240698 0.144097 0.0327713
-0.049375 0.149833 0.0251061
-0.0133925 0.144039 0.0244045
-0.0330734 0.151938 0.0338894
-0.0130934 0.152839 0.0224437
-0.003375 0.154092 0.0211646
0.0160179 0.156558 0.0232079
-0.0130481 0.157443 0.018161
0.0246 0.158129 0.0233388
0.00743624 0.164324 0.0190909
-0.0101833 0.160469 0.0167068
-0.00365302 0.164591 0.0183276
-0.001495 0.162026 0.0203423
-0.0107125 0.165575 -0.0134239
-0.00611017 0.167042 -0.0167137
-0.00225 0.168889 -0.021098
-0.00311 0.170439 -0.0233204
0.0010625 0.170037 0.0172498
0.00697034 0.172632 0.0185263
0.00847727 0.171759 0.0203277
0.0441692 0.174541 0.0144163
0.000359375 0.175096 -0.034153
0.00568945 0.176478 -0.0366873
0.0132212 0.175301 0.0200438
0.01175 0.178091 -0.0401622
0.0128571 0.178644 -0.0409178
0.00762847 0.180856 -0.0417211
0.0271622 0.182707 0.0175625
0.0364773 0.183399 0.0144373
0.0434784 0.181682 0.0121831
