ply
format ascii 1.0
comment Created by Open3D
element vertex 376
property double x
property double y
property double z
end_header
-0.0364312 0.121948 0.0275059
-0.0378278 0.0389215 0.0442848
-0.044875 0.03869 0.0442492
-0.063075 0.038569 0.0421047
0.0476538 0.0744635 0.0151962
-0.0149451 0.0457728 0.0499981
-0.054625 0.0392266 0.0459762
-0.0549511 0.0388532 0.0467983
-0.0248377 0.039223 0.0536923
-0.01975 0.0505531 0.0462329
-0.0727 0.151302 0.0369557
-0.0382833 0.149926 0.00149073
-0.0347806 0.124681 0.0219769
0.0270221 0.0393804 0.0301316
-0.032685 0.0392366 0.0504192
-0.0147912 0.0392328 0.0513144
-0.004875 0.0390264 0.0481837
-0.0530921 0.0497703 0.0333743
0.0335053 0.065785 0.0394203
-0.00025 0.0439596 0.04621
-0.01088 0.178634 -0.0251766
-0.05475 0.0414016 0.0465135
-0.0415761 0.171976 -0.00157886
-0.0611149 0.138095 0.0351283
0.0058631 0.0390763 0.04567
-0.0205476 0.183985 -0.0147127
-0.0843209 0.125315 0.0496649
-0.004875 0.0558567 0.0539608
0.00107895 0.0394741 0.0465593
0.0149079 0.0390895 0.0439813
0.0220345 0.0393305 0.0397908
-0.0447519 0.116356 0.0323463
0.00625735 0.0662945 0.0554402
-0.0667 0.0386498 0.0351532
-0.0603 0.113086 0.0362145
0.0315278 0.0399316 0.0270246
-0.0747309 0.146413 0.0423644
0.00572525 0.0429833 0.0456461
0.0438382 0.0963579 0.0144786
-0.0681722 0.0385579 0.0121931
-0.0511081 0.138611 0.0221099
0.0441493 0.047782 0.0297091
0.02895 0.0377294 0.0250566
-0.0246879 0.0453134 0.0513441
0.005125 0.0558105 0.053481
0.0346809 0.0391301 0.0243979
-0.06925 0.156652 -0.00268194
-0.071181 0.0389165 0.00885711
-0.0320844 0.0434174 0.0493168
-0.0568713 0.145472 0.0314269
-0.00494203 0.0455419 0.0487539
0.0223667 0.0940904 0.0472435
0.0186154 0.0515357 0.0457134
-0.0646578 0.0758964 0.0402038
-0.0620432 0.0435185 0.0407423
-0.0176613 0.159817 -0.00743126
-0.0546402 0.0453213 0.042669
-0.0448667 0.0458229 0.0412421
-0.0440248 0.0557582 0.0388399
-0.0263788 0.0499796 0.044944
-0.0253822 0.0554027 0.0406893
-0.0357295 0.0466407 0.041823
-0.075401 0.141382 0.0470513
0.00475943 0.047584 0.0496729
0.0156835 0.045162 0.0440304
-0.0148988 0.105798 0.0428733
0.0241279 0.0462955 0.0394613
-0.0148175 0.0557359 0.0509343
-0.0248833 0.105735 0.0415426
-0.0647031 0.0434065 0.0353789
0.0284741 0.043835 0.0334791
-0.0348754 0.105592 0.0394689
0.0149687 0.0560701 0.0495846
0.0350849 0.045861 0.0304693
-0.00276277 0.0668776 0.0566176
0.0213011 0.0579221 0.0474294
-0.0348422 0.0557773 0.0385674
-0.0573973 0.152581 0.0304361
0.0405 0.0402312 0.021402
-0.0148417 0.06561 0.0537027
-0.0566893 0.048417 0.0102664
0.0395 0.041387 0.0256492
0.0458361 0.0441425 0.0240909
-0.0651473 0.0443387 0.0095658
0.0505 0.050134 0.0269078
-0.0707083 0.0418621 0.00767744
0.0121351 0.049069 0.0476449
0.0529032 0.0485213 0.0221717
0.0322629 0.0571586 0.0384831
-0.0685333 0.161908 -0.0121854
0.00498098 0.106 0.0429219
0.0337841 0.0758233 0.0402159
-0.049 0.0559974 0.0351646
-0.0633611 0.0472931 0.00558438
-0.0826383 0.0861515 0.0306316
0.0258197 0.0553894 0.0421794
-0.072053 0.0693465 0.029533
-0.0213783 0.0667743 0.0491848
0.0367141 0.055042 0.0327299
-0.0588214 0.0493544 0.00567626
-0.06875 0.133984 0.0475123
-0.0513989 0.0557685 0.0311337
-0.0205345 0.0572464 0.0471387
-0.07925 0.150464 0.0359331
0.045125 0.0558608 0.0314094
0.052525 0.056555 0.0284701
0.0567419 0.0555615 0.0230534
-0.0549107 0.0534178 0.00971496
-0.0575147 0.0536604 0.00387973
-0.029125 0.0548954 0.0362196
-0.0564149 0.0591928 0.0220028
-0.0068986 0.0647679 0.0559105
-0.0805 0.140756 0.0465313
0.00208553 0.0643054 0.0564931
-0.0317917 0.16682 -0.00542665
0.015125 0.0657726 0.0515369
-0.040625 0.173852 -0.0045542
-0.0617969 0.0598607 0.020461
-0.0262063 0.0653116 0.0410075
0.0215823 0.0659232 0.0477465
0.0265386 0.0656545 0.0438964
0.0330509 0.0950942 0.0395112
-0.0490658 0.0625887 0.0354814
-0.04455 0.0660102 0.0400859
-0.034875 0.0658276 0.0405292
0.0384755 0.0657559 0.0342014
0.0604375 0.0600478 0.0170983
-0.0549983 0.0639516 0.032481
-0.0648875 0.178914 -0.055861
-0.0786288 0.0964346 0.0352071
0.0387833 0.0858132 0.0346287
-0.034875 0.075759 0.0417337
0.0448194 0.0647083 0.0286747
-0.0472155 0.161444 0.00683709
0.014558 0.114176 0.0378169
0.0527913 0.0638787 0.0279218
-0.0226413 0.12182 0.0287213
-0.082092 0.104519 0.0291141
-0.0658099 0.0628451 0.0233835
-0.059 0.0613179 0.0253753
-0.0427663 0.148305 0.0046818
-0.0621895 0.126573 0.0428206
0.0562921 0.0667155 0.0231794
-0.0220786 0.157993 -0.00458893
-0.0805 0.110055 0.0428709
0.0383125 0.106941 0.0230878
-0.064625 0.0670858 0.0322851
0.0605893 0.0634974 0.0173946
-0.0212022 0.175646 -0.0148007
-0.0727453 0.0660946 0.0209062
-0.0256102 0.117002 0.0329161
-0.0542819 0.0686268 0.0376951
0.0463913 0.0689773 0.024672
-0.0832872 0.144329 0.0403244
0.0605714 0.0674809 0.0159436
-0.0857661 0.113459 0.0443839
-0.07725 0.0686693 0.0161903
-0.0256917 0.0966729 0.0445172
-0.0615469 0.0696986 0.0370349
-0.09325 0.117104 0.0199831
-0.0163471 0.073635 0.0552735
-0.004875 0.0756526 0.0579905
-0.0456293 0.111346 0.0367496
0.00323269 0.075494 0.0567697
-0.0890203 0.127598 0.0448436
0.00678241 0.0759224 0.0558173
0.0150355 0.0758269 0.0533509
-0.0520088 0.126182 0.0342383
-0.0278586 0.0747318 0.0430634
-0.00975 0.181125 -0.0276767
-0.0232283 0.0763644 0.0519899
-0.0134238 0.0773504 0.0569509
0.0230362 0.0761234 0.0491727
0.0278971 0.0753371 0.0445686
0.059475 0.0694844 0.0157501
-0.054875 0.0758052 0.0423106
-0.044875 0.0758258 0.0425431
-0.0754333 0.0753906 0.0327338
-0.0687813 0.0716494 0.0356703
0.0387305 0.07556 0.0345308
-0.00932143 0.171937 -0.0225701
0.0418608 0.0758571 0.0295211
-0.0786875 0.072734 0.0230441
0.0318255 0.11301 0.0291849
0.0459369 0.0744676 0.0218865
0.0534167 0.0721496 0.0198137
-0.0818125 0.0735259 0.0126193
-0.00897727 0.175737 -0.0260942
-0.0492115 0.132036 0.0278495
-0.0825865 0.0766933 0.0204367
0.0572143 0.0719186 0.0156064
-0.0720536 0.0779481 0.0378467
-0.0815 0.0792494 0.0291273
-0.044875 0.0955651 0.0429422
-0.0649331 0.0956429 0.042968
-0.0204167 0.0802733 0.056411
-0.0271923 0.161502 -0.00296942
-0.0440977 0.165662 0.00354653
-0.0205238 0.0833633 0.0566436
-0.0145185 0.0852385 0.057098
-0.00498123 0.0855382 0.0571574
-0.0137626 0.168158 -0.0159473
0.00329592 0.0846849 0.0569161
0.00513105 0.12513 0.031941
-0.0244243 0.0859321 0.0524632
0.00685461 0.0869389 0.0555405
0.015201 0.0857698 0.0521557
0.0234813 0.0856146 0.0485598
-0.0740951 0.0859252 0.0394041
-0.064875 0.0857588 0.0439152
-0.054875 0.0858322 0.0448485
-0.0652071 0.145884 0.0395078
-0.044875 0.0857362 0.0436165
-0.034875 0.0857038 0.0432075
-0.028984 0.0864207 0.0450124
0.0284328 0.0861549 0.0445742
-0.056695 0.11639 0.03785
-0.0163202 0.099341 0.0445975
-0.0736581 0.0956162 0.0395609
0.0338031 0.0856574 0.0406602
-0.0910403 0.14631 0.0231429
-0.0789444 0.0849059 0.0352703
0.0418196 0.0854447 0.0295074
-0.0673071 0.17609 -0.0493684
-0.0868152 0.0862261 0.022128
-0.0120441 0.0914531 0.0564282
0.0444409 0.0857545 0.0234958
-0.08675 0.0817261 0.0151105
-0.0485536 0.138298 0.0141551
-0.0470935 0.124636 0.028945
0.045925 0.0858581 0.0102075
-0.0647188 0.1559 0.0253192
-0.0854527 0.152661 0.0234177
-0.0182931 0.0893415 0.0557605
-0.000785714 0.0901517 0.0561722
-0.0860581 0.105259 0.0218097
-0.0225882 0.092963 0.0502428
0.00553191 0.130068 0.0236745
-0.0147124 0.0951893 0.0527351
-0.0067037 0.0915854 0.0565256
-0.00468498 0.096321 0.0532385
0.00516216 0.0957382 0.0519865
0.0150137 0.0956818 0.0490665
-0.06575 0.160571 -0.0144448
-0.054875 0.0956368 0.0439474
-0.034875 0.0956183 0.0436929
0.0264845 0.0965667 0.0438676
-0.0831868 0.0956471 0.0305372
0.0411279 0.0941872 0.0281762
0.0377773 0.0965863 0.0327035
-0.0170686 0.119193 0.0352668
-0.0881114 0.0959992 0.0227173
0.0426025 0.0959776 0.0233669
-0.0904474 0.143367 0.0273535
-0.0895 0.0954742 0.0158904
0.003 0.100382 0.0462964
-0.090975 0.136186 0.0212902
0.0195 0.100376 0.0462116
-0.0648277 0.105679 0.0395428
-0.0548833 0.105655 0.0402245
-0.0448833 0.105643 0.0400469
-0.004875 0.105519 0.0438369
0.00840278 0.101641 0.0469755
0.0133958 0.10196 0.0470711
-0.0416757 0.156446 0.0050376
0.0154444 0.106578 0.0424651
0.0247546 0.105391 0.0397781
-0.0739292 0.177815 -0.0474731
-0.0938581 0.125762 0.0238273
-0.0777045 0.104698 0.0339365
0.014538 0.123895 0.030884
-0.0731019 0.10591 0.0383545
-0.0677755 0.158642 -0.00788635
0.0310972 0.102332 0.0369722
-0.0571364 0.159155 0.00571827
0.0345023 0.105525 0.0313458
-0.0716071 0.156883 -0.00224268
0.04075 0.102214 0.0211885
-0.0783667 0.169496 -0.035855
0.0417778 0.102502 0.0150883
-0.087375 0.105921 0.0150581
-0.0549489 0.135647 0.0319936
0.0015 0.121071 0.0366058
0.0289205 0.109207 0.0354341
-0.0758182 0.111021 0.0451654
-0.03725 0.110386 0.0362618
-0.07025 0.181997 -0.0541428
-0.0737254 0.158982 -0.00800547
-0.0143685 0.115064 0.0389873
-0.048 0.13422 0.0211161
-0.00488333 0.115581 0.0402929
0.00501678 0.115732 0.039507
-0.0748123 0.116129 0.0507443
-0.0630108 0.114775 0.0400419
-0.067075 0.117215 0.049997
-0.0349471 0.116003 0.0324378
-0.0315 0.111114 0.0365533
-0.0232281 0.112721 0.037809
0.0221161 0.111926 0.0369946
-0.0170073 0.18389 -0.019247
-0.0754919 0.167676 -0.027869
0.0252694 0.115882 0.0325061
-0.08915 0.149468 0.0249829
-0.0537149 0.115273 0.0348735
0.0334146 0.114477 0.0240346
-0.0839726 0.117319 0.0480922
-0.0914434 0.118007 0.042365
0.0161616 0.11865 0.0352728
0.0285938 0.119537 0.0250871
-0.0541667 0.152216 0.0238595
-0.091359 0.124913 0.0424884
-0.074875 0.125657 0.052676
-0.0668628 0.125108 0.0499853
0.00808333 0.120342 0.0362322
-0.0568434 0.125446 0.0390035
-0.0142515 0.123522 0.0312055
-0.00486583 0.125302 0.031846
-0.00356 0.121303 0.0366924
-0.0869011 0.136873 0.0427374
0.0221603 0.122018 0.029023
-0.0250955 0.124225 0.0215542
0.0236611 0.123558 0.0237478
-0.0438255 0.125901 0.0225756
-0.0155714 0.127272 0.0230778
-0.0923875 0.128106 0.0274911
0.0154521 0.12788 0.0224133
-0.0361538 0.127437 0.0148526
-0.02615 0.126175 0.0152879
-0.0673026 0.151468 0.0368423
-0.0424091 0.128938 0.0137511
-0.00527976 0.129634 0.0242931
-0.0828154 0.134599 0.0490939
-0.074875 0.135521 0.0501077
-0.0647025 0.135808 0.0412713
-0.0909773 0.13266 0.027774
-0.0901429 0.132861 0.0395979
-0.0583707 0.132341 0.0372064
0.004 0.13132 0.0175411
-0.0896 0.139337 0.0338104
-0.0864085 0.147249 0.0319233
-0.0605526 0.145736 0.0358165
-0.0526056 0.145593 0.0214078
-0.0474657 0.147398 0.00903795
-0.0507738 0.14705 0.0132826
-0.09 0.15081 0.0206138
-0.0825745 0.152076 0.029755
-0.074814 0.15346 0.0321044
-0.064748 0.153656 0.0324278
-0.0533649 0.156307 0.0100886
-0.0248502 0.166077 -0.00865113
-0.0461613 0.155312 0.00839615
-0.0351041 0.156219 0.0021092
-0.0757667 0.155653 0.0253122
-0.0265348 0.158172 -0.0013035
-0.0774091 0.159298 -0.017294
-0.0524125 0.162493 0.00462182
-0.051275 0.161025 0.00685222
-0.0362432 0.165544 -0.000351256
-0.073549 0.164901 -0.0187334
-0.0723214 0.162008 -0.0114938
-0.0674254 0.164256 -0.0184779
-0.016494 0.164217 -0.0108157
-0.0674679 0.16796 -0.0274781
-0.00915 0.168436 -0.0203
-0.02055 0.170132 -0.0139448
-0.0748144 0.173395 -0.0396813
-0.0726111 0.171151 -0.0319481
-0.0352067 0.173378 -0.00169607
-0.0325865 0.176055 -0.00524148
-0.0261628 0.175774 -0.00977807
-0.0152894 0.175448 -0.0191794
-0.068675 0.172593 -0.0415229
-0.0716389 0.181386 -0.0525416
-0.0677813 0.181512 -0.0556375
-0.0241656 0.182768 -0.0107641
-0.0125814 0.183518 -0.0257962
